<svg xmlns="http://www.w3.org/2000/svg" width="188" height="32" viewBox="0 0 188 32">
  <g fill="none" fill-rule="evenodd">
    <path fill="#321D00" fill-rule="nonzero" d="M48.1536541,22.8987342 C49.3784496,22.8987342 50.4834281,22.750211 51.4685897,22.4531646 C52.4537512,22.1561181 53.2891416,21.7105485 53.9747608,21.1164557 C54.66038,20.5223629 55.1895715,19.7729958 55.5623353,18.8683544 C55.9350992,17.9637131 56.1214811,16.9037975 56.1214811,15.6886076 C56.1214811,14.4194093 55.9350992,13.3324895 55.5623353,12.4278481 C55.1895715,11.5232068 54.6570517,10.7805907 53.964776,10.2 C53.2725003,9.61940928 52.4437665,9.19409283 51.4785744,8.92405063 C50.5133823,8.65400844 49.4383581,8.51898734 48.2535016,8.51898734 C47.6943558,8.51898734 47.0253779,8.54261603 46.2465677,8.58987342 C45.4677576,8.6371308 44.7189017,8.72827004 44,8.86329114 L44,8.86329114 L44,22.5341772 C44.7189017,22.6827004 45.4511164,22.7805907 46.196644,22.8278481 C46.9421717,22.8751055 47.5945084,22.8987342 48.1536541,22.8987342 Z M48.3134101,20.1848101 C48.0471502,20.1848101 47.817501,20.1814346 47.6244626,20.1746835 C47.4314242,20.1679325 47.2616835,20.1578059 47.1152406,20.1443038 L47.1152406,20.1443038 L47.1152406,11.2734177 C47.3149355,11.2464135 47.5279434,11.2295359 47.7542643,11.2227848 C47.9805852,11.2160338 48.2002496,11.2126582 48.4132575,11.2126582 C49.9708778,11.2126582 51.1091388,11.5907173 51.8280405,12.3468354 C52.5469422,13.1029536 52.906393,14.2168776 52.906393,15.6886076 C52.906393,17.092827 52.5303009,18.1932489 51.7781168,18.9898734 C51.0259326,19.7864979 49.8710304,20.1848101 48.3134101,20.1848101 Z M63.5701012,23 C63.9428651,23 64.3156289,22.9797468 64.6883927,22.9392405 C65.0611566,22.8987342 65.4106227,22.8481013 65.736791,22.7873418 C66.0629594,22.7265823 66.3591735,22.6556962 66.6254334,22.5746835 C66.8916932,22.4936709 67.1047012,22.4126582 67.2644571,22.3316456 L67.2644571,22.3316456 L66.8650673,19.8810127 C66.5322424,20.0295359 66.1028983,20.1544304 65.5770351,20.2556962 C65.0511718,20.356962 64.5153238,20.4075949 63.9694911,20.4075949 C63.1174594,20.4075949 62.4384967,20.2253165 61.932603,19.8607595 C61.4267092,19.4962025 61.1404798,19.0033755 61.0739149,18.3822785 L61.0739149,18.3822785 L67.8236028,18.3822785 C67.8369158,18.2202532 67.8502288,18.0345992 67.8635418,17.8253165 C67.8768548,17.6160338 67.8835113,17.4236287 67.8835113,17.2481013 C67.8835113,15.4523207 67.450839,14.0919831 66.5854944,13.1670886 C65.7201498,12.2421941 64.5419498,11.7797468 63.0508945,11.7797468 C62.4118708,11.7797468 61.7894883,11.9012658 61.1837471,12.1443038 C60.5780058,12.3873418 60.0421578,12.7451477 59.576203,13.2177215 C59.1102482,13.6902954 58.7341562,14.2810127 58.4479268,14.9898734 C58.1616974,15.6987342 58.0185827,16.5257384 58.0185827,17.4708861 C58.0185827,18.2540084 58.1284149,18.9831224 58.3480793,19.6582278 C58.5677437,20.3333333 58.9072251,20.9172996 59.3665234,21.4101266 C59.8258217,21.9029536 60.4049369,22.2911392 61.1038691,22.5746835 C61.8028013,22.8582278 62.6248787,23 63.5701012,23 Z M65.0079046,16.3164557 L61.0739149,16.3164557 C61.1138538,16.0599156 61.1770906,15.8067511 61.263625,15.556962 C61.3501595,15.307173 61.4733047,15.0877637 61.6330606,14.8987342 C61.7928165,14.7097046 61.9925114,14.5578059 62.2321453,14.443038 C62.4717792,14.32827 62.7580086,14.2708861 63.0908334,14.2708861 C63.4369713,14.2708861 63.7265289,14.3316456 63.9595063,14.4531646 C64.1924837,14.5746835 64.3855221,14.7299578 64.5386216,14.9189873 C64.691721,15.1080169 64.8048814,15.3240506 64.8781029,15.5670886 C64.9513244,15.8101266 64.9945916,16.0599156 65.0079046,16.3164557 L65.0079046,16.3164557 Z M73.4949383,22.7164557 L73.4949383,16.9240506 L78.9665788,16.9240506 L78.9665788,14.2708861 L73.4949383,14.2708861 L73.4949383,11.3341772 L79.6455415,11.3341772 L79.6455415,8.68101266 L70.3796977,8.68101266 L70.3796977,22.7164557 L73.4949383,22.7164557 Z M83.120233,10.7670886 C83.5995008,10.7670886 84.0155318,10.6084388 84.3683262,10.2911392 C84.7211205,9.97383966 84.8975177,9.53839662 84.8975177,8.98481013 C84.8975177,8.43122363 84.7211205,7.99578059 84.3683262,7.67848101 C84.0155318,7.36118143 83.5995008,7.20253165 83.120233,7.20253165 C82.6409652,7.20253165 82.2249341,7.36118143 81.8721398,7.67848101 C81.5193454,7.99578059 81.3429483,8.43122363 81.3429483,8.98481013 C81.3429483,9.53839662 81.5193454,9.97383966 81.8721398,10.2911392 C82.2249341,10.6084388 82.6409652,10.7670886 83.120233,10.7670886 Z M84.6179448,22.7164557 L84.6179448,12.0632911 L81.6424906,12.0632911 L81.6424906,22.7164557 L84.6179448,22.7164557 Z M95.5212869,22.7164557 L95.5212869,16.7620253 L100.753294,16.7620253 L100.753294,22.7164557 L103.868534,22.7164557 L103.868534,8.68101266 L100.753294,8.68101266 L100.753294,14.0481013 L95.5212869,14.0481013 L95.5212869,8.68101266 L92.4060463,8.68101266 L92.4060463,22.7164557 L95.5212869,22.7164557 Z M110.678131,22.9392405 C111.756483,22.9392405 112.67508,22.8751055 113.43392,22.7468354 C114.192761,22.6185654 114.785189,22.507173 115.211205,22.4126582 L115.211205,22.4126582 L115.211205,16.1341772 C115.211205,15.4725738 115.137984,14.87173 114.991541,14.3316456 C114.845098,13.7915612 114.595479,13.3324895 114.242685,12.9544304 C113.88989,12.5763713 113.420607,12.2860759 112.834836,12.0835443 C112.249064,11.8810127 111.516849,11.7797468 110.638192,11.7797468 C110.292054,11.7797468 109.949244,11.7966245 109.609763,11.8303797 C109.270282,11.864135 108.947441,11.9046414 108.641243,11.9518987 C108.335044,11.9991561 108.052143,12.0531646 107.792539,12.1139241 C107.532936,12.1746835 107.3166,12.2320675 107.143531,12.2860759 L107.143531,12.2860759 L107.522951,14.7164557 C107.882402,14.5814346 108.308418,14.4767932 108.800998,14.4025316 C109.293579,14.32827 109.792817,14.2911392 110.29871,14.2911392 C111.057551,14.2911392 111.590071,14.4464135 111.89627,14.756962 C112.202468,15.0675105 112.355568,15.4793249 112.355568,15.9924051 L112.355568,15.9924051 L112.355568,16.2759494 C112.169186,16.2219409 111.926224,16.1780591 111.626681,16.1443038 C111.327139,16.1105485 110.984329,16.0936709 110.598253,16.0936709 C110.025794,16.0936709 109.473305,16.1510549 108.940785,16.2658228 C108.408265,16.3805907 107.935654,16.5662447 107.522951,16.8227848 C107.110248,17.0793249 106.780752,17.4236287 106.534461,17.8556962 C106.288171,18.2877637 106.165026,18.814346 106.165026,19.435443 C106.165026,20.0835443 106.27153,20.6303797 106.484538,21.0759494 C106.697545,21.521519 107.003744,21.8827004 107.403134,22.1594937 C107.802524,22.4362869 108.278463,22.635443 108.830953,22.756962 C109.383442,22.878481 109.999168,22.9392405 110.678131,22.9392405 Z M110.877826,20.6101266 C110.331993,20.6101266 109.902649,20.5189873 109.589793,20.3367089 C109.276938,20.1544304 109.12051,19.8270042 109.12051,19.3544304 C109.12051,19.1113924 109.173762,18.9088608 109.280266,18.7468354 C109.38677,18.5848101 109.533213,18.4565401 109.719595,18.3620253 C109.905977,18.2675105 110.122313,18.2033755 110.368604,18.1696203 C110.614894,18.135865 110.877826,18.1189873 111.157398,18.1189873 C111.357093,18.1189873 111.576758,18.1324895 111.816392,18.1594937 C112.056026,18.1864979 112.235751,18.2135021 112.355568,18.2405063 L112.355568,18.2405063 L112.355568,20.5291139 C112.195812,20.5561181 111.982804,20.5763713 111.716544,20.5898734 C111.450284,20.6033755 111.170711,20.6101266 110.877826,20.6101266 Z M120.882541,22.7164557 L120.882541,14.4936709 C121.068922,14.4666667 121.28193,14.443038 121.521564,14.4227848 C121.761198,14.4025316 121.987519,14.3924051 122.200527,14.3924051 C122.892803,14.3924051 123.365414,14.5949367 123.618361,15 C123.871308,15.4050633 123.997781,16.0936709 123.997781,17.0658228 L123.997781,17.0658228 L123.997781,22.7164557 L126.973235,22.7164557 L126.973235,16.7012658 C126.973235,15.9721519 126.900014,15.3105485 126.753571,14.7164557 C126.607128,14.1223629 126.360838,13.6092827 126.0147,13.1772152 C125.668562,12.7451477 125.199279,12.4109705 124.606851,12.1746835 C124.014422,11.9383966 123.272223,11.8202532 122.380252,11.8202532 C121.501595,11.8202532 120.662876,11.8843882 119.864097,12.0126582 C119.065317,12.1409283 118.41298,12.2793249 117.907086,12.4278481 L117.907086,12.4278481 L117.907086,22.7164557 L120.882541,22.7164557 Z M134.64152,22.9797468 C135.000971,22.9797468 135.377063,22.9628692 135.769796,22.9291139 C136.162529,22.8953586 136.548606,22.8514768 136.928027,22.7974684 C137.307447,22.7434599 137.670226,22.6793249 138.016364,22.6050633 C138.362502,22.5308017 138.668701,22.4531646 138.93496,22.3721519 L138.93496,22.3721519 L138.93496,7 L135.959506,7.48607595 L135.959506,12.3063291 C135.626681,12.1578059 135.297185,12.043038 134.971017,11.9620253 C134.644848,11.8810127 134.275413,11.8405063 133.86271,11.8405063 C133.117182,11.8405063 132.454861,11.9687764 131.875745,12.2253165 C131.29663,12.4818565 130.807378,12.8531646 130.407988,13.3392405 C130.008598,13.8253165 129.702399,14.4160338 129.489391,15.1113924 C129.276383,15.8067511 129.169879,16.5864979 129.169879,17.4506329 C129.169879,18.3012658 129.293025,19.0675105 129.539315,19.7493671 C129.785605,20.4312236 130.141728,21.0118143 130.607683,21.4911392 C131.073637,21.9704641 131.646096,22.3383966 132.325059,22.5949367 C133.004022,22.8514768 133.776175,22.9797468 134.64152,22.9797468 Z M134.661489,20.4075949 C133.849397,20.4075949 133.236999,20.1240506 132.824296,19.556962 C132.411593,18.9898734 132.205242,18.2405063 132.205242,17.3088608 C132.205242,15.364557 132.910831,14.3924051 134.322008,14.3924051 C134.628207,14.3924051 134.931078,14.4329114 135.23062,14.5139241 C135.530162,14.5949367 135.773124,14.6962025 135.959506,14.8177215 L135.959506,14.8177215 L135.959506,20.3063291 C135.813063,20.3333333 135.626681,20.356962 135.400361,20.3772152 C135.17404,20.3974684 134.927749,20.4075949 134.661489,20.4075949 Z M146.02413,22.9797468 C146.889474,22.9797468 147.661628,22.8481013 148.340591,22.5848101 C149.019553,22.321519 149.592012,21.9468354 150.057967,21.4607595 C150.523922,20.9746835 150.880044,20.3873418 151.126335,19.6987342 C151.372625,19.0101266 151.49577,18.2405063 151.49577,17.3898734 C151.49577,16.5527426 151.395923,15.7932489 151.196228,15.1113924 C150.996533,14.4295359 150.703647,13.8455696 150.31757,13.3594937 C149.931494,12.8734177 149.452226,12.4987342 148.879767,12.235443 C148.307308,11.9721519 147.648315,11.8405063 146.902787,11.8405063 C146.490085,11.8405063 146.104008,11.8810127 145.744557,11.9620253 C145.385106,12.043038 145.038968,12.1578059 144.706143,12.3063291 L144.706143,12.3063291 L144.706143,7 L141.730689,7.48607595 L141.730689,22.3721519 C141.996949,22.4531646 142.303148,22.5308017 142.649286,22.6050633 C142.995424,22.6793249 143.358203,22.7434599 143.737623,22.7974684 C144.117043,22.8514768 144.50312,22.8953586 144.895854,22.9291139 C145.288587,22.9628692 145.664679,22.9797468 146.02413,22.9797468 Z M146.00416,20.4075949 C145.7379,20.4075949 145.49161,20.3974684 145.265289,20.3772152 C145.038968,20.356962 144.852586,20.3333333 144.706143,20.3063291 L144.706143,20.3063291 L144.706143,14.8177215 C144.892525,14.6962025 145.135487,14.5949367 145.43503,14.5139241 C145.734572,14.4329114 146.037443,14.3924051 146.343642,14.3924051 C147.754819,14.3924051 148.460408,15.364557 148.460408,17.3088608 C148.460408,18.2405063 148.254056,18.9898734 147.841353,19.556962 C147.428651,20.1240506 146.816253,20.4075949 146.00416,20.4075949 Z M158.465123,23 C159.250589,23 159.959506,22.8649789 160.591874,22.5949367 C161.224241,22.3248945 161.766745,21.9434599 162.219387,21.4506329 C162.672029,20.9578059 163.018167,20.3637131 163.257801,19.6683544 C163.497434,18.9729958 163.617251,18.2067511 163.617251,17.3696203 C163.617251,16.5324895 163.490778,15.7696203 163.237831,15.0810127 C162.984884,14.3924051 162.63209,13.8050633 162.179448,13.3189873 C161.726806,12.8329114 161.184302,12.4548523 160.551935,12.1848101 C159.919567,11.9147679 159.223963,11.7797468 158.465123,11.7797468 C157.719595,11.7797468 157.030648,11.9147679 156.39828,12.1848101 C155.765913,12.4548523 155.22008,12.8329114 154.760782,13.3189873 C154.301484,13.8050633 153.942033,14.3924051 153.68243,15.0810127 C153.422826,15.7696203 153.293025,16.5324895 153.293025,17.3696203 C153.293025,18.2067511 153.419498,18.9729958 153.672445,19.6683544 C153.925392,20.3637131 154.278186,20.9578059 154.730828,21.4506329 C155.18347,21.9434599 155.725974,22.3248945 156.358341,22.5949367 C156.990709,22.8649789 157.692969,23 158.465123,23 Z M158.465123,20.4075949 C157.78616,20.4075949 157.260297,20.1341772 156.887533,19.5873418 C156.514769,19.0405063 156.328387,18.3012658 156.328387,17.3696203 C156.328387,16.4379747 156.514769,15.7054852 156.887533,15.1721519 C157.260297,14.6388186 157.78616,14.3721519 158.465123,14.3721519 C159.144085,14.3721519 159.66662,14.6388186 160.032728,15.1721519 C160.398835,15.7054852 160.581889,16.4379747 160.581889,17.3696203 C160.581889,18.3012658 160.398835,19.0405063 160.032728,19.5873418 C159.66662,20.1341772 159.144085,20.4075949 158.465123,20.4075949 Z M170.586604,23 C171.37207,23 172.080987,22.8649789 172.713355,22.5949367 C173.345722,22.3248945 173.888226,21.9434599 174.340868,21.4506329 C174.79351,20.9578059 175.139648,20.3637131 175.379282,19.6683544 C175.618916,18.9729958 175.738732,18.2067511 175.738732,17.3696203 C175.738732,16.5324895 175.612259,15.7696203 175.359312,15.0810127 C175.106365,14.3924051 174.753571,13.8050633 174.300929,13.3189873 C173.848287,12.8329114 173.305783,12.4548523 172.673416,12.1848101 C172.041048,11.9147679 171.345444,11.7797468 170.586604,11.7797468 C169.841076,11.7797468 169.152129,11.9147679 168.519761,12.1848101 C167.887394,12.4548523 167.341562,12.8329114 166.882263,13.3189873 C166.422965,13.8050633 166.063514,14.3924051 165.803911,15.0810127 C165.544307,15.7696203 165.414506,16.5324895 165.414506,17.3696203 C165.414506,18.2067511 165.540979,18.9729958 165.793926,19.6683544 C166.046873,20.3637131 166.399667,20.9578059 166.852309,21.4506329 C167.304951,21.9434599 167.847455,22.3248945 168.479822,22.5949367 C169.11219,22.8649789 169.81445,23 170.586604,23 Z M170.586604,20.4075949 C169.907641,20.4075949 169.381778,20.1341772 169.009014,19.5873418 C168.63625,19.0405063 168.449868,18.3012658 168.449868,17.3696203 C168.449868,16.4379747 168.63625,15.7054852 169.009014,15.1721519 C169.381778,14.6388186 169.907641,14.3721519 170.586604,14.3721519 C171.265566,14.3721519 171.788102,14.6388186 172.154209,15.1721519 C172.520316,15.7054852 172.70337,16.4379747 172.70337,17.3696203 C172.70337,18.3012658 172.520316,19.0405063 172.154209,19.5873418 C171.788102,20.1341772 171.265566,20.4075949 170.586604,20.4075949 Z M181.010678,22.7164557 L181.010678,18.0582278 C181.343503,18.32827 181.679656,18.6590717 182.019137,19.0506329 C182.358619,19.4421941 182.681459,19.8506329 182.987658,20.2759494 C183.293857,20.7012658 183.583414,21.1265823 183.856331,21.5518987 C184.129247,21.9772152 184.372209,22.3654008 184.585217,22.7164557 L184.585217,22.7164557 L188,22.7164557 C187.773679,22.2708861 187.494106,21.7780591 187.161281,21.2379747 C186.828457,20.6978903 186.462349,20.1578059 186.062959,19.6177215 C185.66357,19.0776371 185.250867,18.5544304 184.824851,18.0481013 C184.398835,17.5417722 183.986132,17.1063291 183.586742,16.7417722 C184.385522,15.9451477 185.121065,15.1721519 185.793371,14.4227848 C186.465677,13.6734177 187.154625,12.8869198 187.860214,12.0632911 L187.860214,12.0632911 L184.325614,12.0632911 C184.139232,12.292827 183.916239,12.5628692 183.656636,12.8734177 C183.397032,13.1839662 183.120788,13.5113924 182.827902,13.8556962 C182.535016,14.2 182.232145,14.5476793 181.91929,14.8987342 C181.606435,15.249789 181.303564,15.5873418 181.010678,15.9113924 L181.010678,15.9113924 L181.010678,7 L178.035224,7.48607595 L178.035224,22.7164557 L181.010678,22.7164557 Z"/>
    <g fill-rule="nonzero">
      <path fill="#DF870C" d="M7.8418254e-05,-3.56908563e-15 L13.6071103,-3.56908563e-15 C15.6393103,-3.56908563e-15 17.5316124,0.327599857 19.2840168,0.982799571 C21.0364211,1.63799929 22.553208,2.62079886 23.8343776,3.93119829 C25.1155471,5.24159771 26.116921,6.879597 26.8384993,8.84519614 C27.5600776,10.8107953 27.9208667,13.1188852 27.9208667,15.7694659 C27.9208667,18.0924467 27.6263449,20.2367366 27.0373015,22.2023358 C26.4992014,23.9979402 25.7091755,25.5698657 24.6672239,26.9181124 L24.800446,26.7418561 L23.0493966,23.7291409 C21.0043763,20.2032272 19.4160109,17.4354534 18.2843006,15.4258195 C17.0451374,10.7369468 11.5049072,8.13394227 6.36899573,11.5792552 L6.21349066,11.6855141 L7.8418254e-05,17.3732171 L7.8418254e-05,-3.56908563e-15 Z"/>
      <path fill="#FFC45B" d="M0,20.5952731 L7.46145451,13.7205062 C10.8311187,11.1788978 14.5570543,13.0951365 14.6312361,16.6525169 L14.6323621,16.7608158 L0,31.9759781 L0,20.5952731 Z"/>
      <path fill="#FFF" d="M14.6313145,16.5331937 L14.6324405,16.6414925 L0,31.8566549 L0,29.0654856 L14.3409922,14.9876565 C14.5176796,15.4549495 14.6196491,15.9737797 14.6313145,16.5331937 Z M13.9943668,14.2815232 L0,28.0184856 L0,25.9194856 L13.2287488,13.3807432 C13.5244762,13.636336 13.7827446,13.9387481 13.9943668,14.2815232 Z M12.6048287,12.9421608 L0,24.8884856 L0,23.1084856 L11.2165718,12.4774003 C11.7157549,12.546459 12.1842679,12.7054277 12.6048287,12.9421608 Z M10.1410452,12.4673251 L0,22.0784856 L0,20.4759499 L7.46153293,13.601183 C8.35454864,12.9276155 9.27258658,12.5671387 10.1410452,12.4673251 Z"/>
      <path fill="#FFD359" d="M18.2843006,15.4258196 L24.8514598,26.7188855 L24.8514598,26.7188855 L24.6344224,27.0065641 L24.3645167,27.3412129 C23.1717037,28.7707396 21.6843689,29.8950027 19.9025124,30.7140023 C18.2394463,31.478402 16.300577,31.8860818 14.0859045,31.9370418 L13.6071103,31.9425018 L7.8418254e-05,31.9425018 L7.8418254e-05,31.7980159 L14.5239251,16.7569231 C14.5239251,13.0769897 10.715344,11.5418409 7.2970243,14.0561322 L7.8418254e-05,20.6330159 L7.8418254e-05,17.1660159 L6.06074673,11.6267394 C11.2644197,8.10038305 17.0001687,10.5953265 18.2843006,15.4258196 Z"/>
    </g>
  </g>
</svg>
